<?xml version="1.0" standalone="no"?>
<!DOCTYPE svg PUBLIC "-//W3C//DTD SVG 20010904//EN"
 "http://www.w3.org/TR/2001/REC-SVG-20010904/DTD/svg10.dtd">
<svg version="1.0" xmlns="http://www.w3.org/2000/svg"
 width="1080.000000pt" height="1080.000000pt" viewBox="0 0 1080.000000 1080.000000"
 preserveAspectRatio="xMidYMid meet">
<metadata>
Created by potrace 1.14, written by Peter Selinger 2001-2017
</metadata>
<g transform="translate(0.000000,1080.000000) scale(0.100000,-0.100000)"
fill="#000000" stroke="none">
<path d="M5085 10793 c-302 -24 -498 -48 -710 -89 -1287 -249 -2440 -959
-3245 -1999 -115 -149 -313 -447 -414 -623 -368 -643 -598 -1360 -683 -2132
-25 -231 -25 -854 0 -1080 56 -490 156 -920 317 -1350 426 -1140 1224 -2101
2270 -2731 678 -408 1418 -654 2250 -746 235 -26 834 -26 1070 0 1028 113
1956 483 2760 1101 438 337 868 797 1182 1266 134 201 236 379 348 605 289
587 460 1175 537 1850 14 126 18 239 18 530 0 376 -6 472 -46 765 -137 994
-558 1940 -1214 2725 -129 155 -396 427 -555 568 -888 782 -2009 1251 -3195
1337 -126 9 -590 11 -690 3z m2797 -3173 c68 -25 128 -86 164 -165 53 -114 50
-164 -66 -1435 -115 -1250 -135 -1574 -120 -1875 13 -260 42 -335 126 -335 48
0 89 28 138 94 203 273 585 1442 1047 3205 32 123 60 225 62 228 4 3 359 -38
366 -43 5 -5 -126 -520 -209 -820 -218 -783 -384 -1282 -598 -1794 -258 -618
-400 -884 -599 -1121 -172 -205 -344 -295 -512 -268 -164 26 -247 121 -294
337 -18 84 -21 131 -21 352 0 337 18 600 129 1845 105 1174 103 1143 59 1172
-34 22 -76 3 -120 -56 -69 -90 -264 -497 -380 -792 -135 -346 -601 -1308 -790
-1629 -184 -314 -452 -693 -599 -849 -152 -160 -453 -368 -687 -475 l-76 -35
-42 112 c-23 62 -55 147 -71 189 l-28 78 110 55 c212 105 382 229 577 419 249
243 455 520 704 946 184 315 309 562 593 1175 212 455 526 1080 597 1186 177
265 360 367 540 299z m-3022 -252 c66 -31 101 -88 79 -130 -7 -13 -65 -90
-129 -173 -217 -279 -350 -469 -423 -605 -124 -231 -323 -761 -578 -1540 -98
-298 -157 -427 -285 -624 -211 -323 -498 -583 -819 -744 -368 -183 -791 -221
-1097 -98 -352 142 -498 500 -352 860 141 348 661 729 1220 894 115 34 305 68
440 77 90 7 91 7 97 -17 5 -22 21 -179 19 -187 -1 -2 -50 -16 -109 -31 -160
-41 -253 -75 -403 -147 -354 -169 -586 -392 -645 -620 -17 -65 -19 -197 -4
-262 50 -217 244 -344 477 -312 165 23 292 92 423 227 194 201 345 517 570
1195 232 698 362 1008 533 1269 92 140 171 234 307 364 95 91 117 117 104 122
-24 10 -453 -3 -565 -16 -421 -50 -841 -175 -1036 -307 -80 -54 -150 -132
-181 -199 -22 -50 -25 -66 -21 -143 5 -102 37 -182 110 -272 l45 -56 -64 -79
c-36 -43 -69 -81 -74 -82 -26 -10 -232 185 -298 282 -50 72 -100 185 -116 261
-17 83 -19 203 -4 277 52 251 326 478 730 606 312 99 773 181 1184 212 83 6
170 12 195 14 25 2 178 3 340 2 250 -1 300 -4 330 -18z"/>
</g>
</svg>
